# xmcd CD database file
#
# Track frame offsets:
#	150
#	29308
#	45880
#	98166
#	140592
#	175422
#	189916
#	209799
#	331423
#
# Disc length: 4741 seconds
#
# Revision: 3
# Processed by: cddbd v1.5.2PL0 Copyright (c) Steve Scherf et al.
# Submitted via: CDex 1.51
#
DISCID=7c128309
DTITLE=JIMI HENDRIX - 51st Anniversary(The Story Of Life ...)
DYEAR=2003
DGENRE=Hard Rock
TTITLE0=Midnight Lightning II.
TTITLE1=Lower Alcatraz
TTITLE2=There Goes Ezy Rider  - 7 Dollars In My Pocket
TTITLE3=Heavy Rider Jam
TTITLE4=Easy Blues
TTITLE5=Gypsy Boy
TTITLE6=Peace In Mississipi
TTITLE7=Bluesiana Jam
TTITLE8=BB King Slow Instrumental Jam
EXTD=YEAR: 2003
EXTT0=
EXTT1=
EXTT2=
EXTT3=
EXTT4=
EXTT5=
EXTT6=
EXTT7=
EXTT8=
PLAYORDER=
